<svg width="138" height="53" viewBox="0 0 138 53" fill="none" xmlns="http://www.w3.org/2000/svg">
<g clip-path="url(#clip0_45_64)">
<path d="M22.174 9.86393C21.7076 9.47253 21.2413 9.47252 20.6972 9.94219C18.1325 10.8816 13.3137 14.1697 12.1479 13.9349C14.0909 11.2731 16.1894 8.68964 18.5988 6.34104C19.6091 4.93187 18.2878 4.61873 18.1325 3.83587C17.8215 2.81814 17.977 1.72213 18.2878 0.782691C18.7542 -0.00017523 17.8215 -0.156748 17.2775 0.156398C10.982 6.73247 5.61928 13.3086 0.645113 19.9629C-0.132101 20.9806 0.0233421 21.7635 0.567391 22.3898L3.20992 25.7561C3.75397 26.6956 4.6089 26.8521 5.697 26.1476L14.0132 20.5109C10.6712 25.9909 7.4846 32.1756 5.07523 39.6911C3.98713 42.9009 7.01827 47.7546 11.1375 52.8432C11.6038 53.3912 12.5365 52.8432 11.9147 51.7473C7.95093 44.31 11.2152 32.8019 23.9615 15.8137C24.5833 15.1092 24.8165 14.4045 24.3501 13.7L22.174 9.86393Z" fill="#1D1D1B"/>
<path d="M54.9719 19.6492L56.06 15.4218C56.2932 14.7955 56.7595 14.4824 57.3813 14.4041H61.1119H62.2L62.8217 12.4469H61.1896L56.06 12.5252C54.9719 12.4469 54.117 12.8384 53.573 14.091L50.7749 25.0511L49.6868 29.3568C49.376 30.2962 49.6091 31.0791 50.7749 31.3923C50.8527 31.3923 51.0081 31.4705 51.0859 31.4705H57.6144L58.1584 29.5134H53.1843C52.7957 29.2002 52.4848 29.2002 52.6403 28.2608L53.8061 23.6419C53.9616 23.0939 54.2724 22.7025 54.8164 22.7025H58.6248L59.1689 21.0584H55.2828C54.8164 20.7453 54.7387 20.2755 54.9719 19.6492Z" fill="#1D1D1B"/>
<path d="M62.6661 28.2616C65.2309 18.1626 63.6764 24.1906 66.0081 15.4225C66.2413 14.7962 66.7076 14.4831 67.3294 14.4048H70.8269H72.0704L72.5367 12.8391L72.6922 12.3693H72.5367H70.8269H65.9304C64.8423 12.2911 63.9096 12.6825 63.4433 13.935L61.1117 23.0946L59.5573 29.1227C59.2464 30.2187 59.4796 31.0016 60.9562 31.2365H61.034H67.4848L68.0289 29.2793H63.0548C62.8216 29.2793 62.5106 29.201 62.6661 28.2616Z" fill="#1D1D1B"/>
<path d="M37.6407 22.3114L33.91 19.0234C33.1329 18.084 33.91 14.5611 35.5423 14.4828H39.6614H41.0604L41.5267 12.6039H39.6614H34.5318C32.3556 12.9953 30.568 17.5359 31.423 19.7279L35.2313 23.1726C35.7754 23.7989 35.8531 24.3469 35.8531 24.9732L34.765 28.731C34.5318 29.6704 33.91 29.6704 33.1329 29.6704H28.0033L27.5369 31.471H35.0759C36.2417 31.3927 36.9412 30.6881 37.0967 29.5138L38.3402 24.7383C38.6511 23.6423 38.2625 22.8594 37.6407 22.3114Z" fill="#1D1D1B"/>
<path d="M50.2305 21.7632L50.7746 19.4929L51.9404 14.7174C52.0958 13.4648 51.7072 12.7603 50.7746 12.6037C50.6191 12.5254 50.4637 12.5254 50.3083 12.5254H42.9247L39.7381 24.5032L37.8728 31.4708H39.7381H40.4376L45.0232 14.4825H48.0543C48.6761 14.6391 49.0647 14.9523 49.0647 15.5786L47.8212 20.7455C47.6657 21.6066 47.1217 22.1546 46.189 22.4678L43.8574 22.9375L43.4687 24.7381L48.5207 23.7987C49.3756 23.5638 50.0751 22.9375 50.2305 21.7632Z" fill="#1D1D1B"/>
<path d="M77.1227 12.5254H74.0915L72.5371 18.2403L70.8273 24.5815L68.9619 31.4708H70.8273H71.9931L72.5371 29.357L77.1227 12.5254Z" fill="#1D1D1B"/>
<path d="M104.014 12.5254H102.149H101.061L95.8533 31.4708H98.8849L102.149 19.5712L104.014 12.5254Z" fill="#1D1D1B"/>
<path d="M117.304 23.6426C117.46 23.0946 117.771 22.7032 118.315 22.7032H122.123L122.667 21.0591H118.704C118.237 20.746 118.159 20.2763 118.393 19.65L119.559 15.4225C119.792 14.7962 120.257 14.4831 120.879 14.4048H124.299H125.699L126.086 13.1522L126.32 12.3693H126.086H124.377H119.636C118.548 12.2911 117.615 12.6825 117.149 13.935L114.35 24.8952L113.263 29.201C112.952 30.1404 113.185 30.9233 114.35 31.2365C114.428 31.2365 114.584 31.3147 114.661 31.3147H121.19L121.734 29.3575H116.682C116.294 29.0444 115.983 29.0444 116.138 28.105L117.304 23.6426Z" fill="#1D1D1B"/>
<path d="M136.425 12.5254H127.486L126.01 17.8489L124.3 24.1901L122.357 31.3925H124.3H126.01H131.451C132.771 31.3142 133.549 30.6096 133.86 29.2787L137.902 14.1694C138.057 13.23 137.513 12.6037 136.425 12.5254ZM134.637 15.97L131.295 27.713C131.218 28.6524 130.596 29.2787 129.352 29.357H126.166C126.088 29.357 126.01 29.357 125.933 29.2787C125.622 29.1222 125.622 28.7307 125.777 28.3393L125.933 27.7913L129.896 14.2477H133.782C134.792 14.326 134.948 14.9523 134.637 15.97Z" fill="#1D1D1B"/>
<path d="M104.635 28.0263L114.195 15.7354L114.894 14.7959C115.749 13.5434 115.439 12.6039 114.195 12.6039C114.195 12.6039 114.195 12.6039 114.117 12.6039H105.413L105.335 14.3262H110.698C111.397 14.3262 111.786 14.6393 111.32 15.2656L102.148 27.4L100.594 29.4355C99.9722 30.3749 100.205 31.0796 101.294 31.5492H102.148H110.775L111.32 29.4355H104.791C104.169 29.279 104.091 28.4961 104.635 28.0263Z" fill="#1D1D1B"/>
<path d="M82.4077 12.6037L72.5371 31.2359L72.3816 31.5491H72.5371H74.7132L82.4854 16.6746L83.1848 16.7529L83.5735 20.9021C83.8844 21.9198 83.1848 21.8415 82.9517 21.8415H80.7756L80.3869 23.4072L82.9517 23.4856C83.418 23.5638 83.6512 23.7987 83.5735 24.2684L84.0398 31.3142H86.6823L85.5942 12.5254L82.4077 12.6037Z" fill="#1D1D1B"/>
<path d="M90.7238 28.0262L94.9205 12.5254H91.8898L87.3818 29.2005C87.3041 30.1399 87.6927 31.1576 88.936 31.4708H94.9205L95.5424 29.4353L91.268 29.357C90.7238 29.2787 90.4906 28.8091 90.7238 28.0262Z" fill="#1D1D1B"/>
</g>
<defs>
<clipPath id="clip0_45_64">
<rect width="138" height="53" fill="white"/>
</clipPath>
</defs>
</svg>
