<svg width="80" height="32" viewBox="0 0 80 32" fill="none" xmlns="http://www.w3.org/2000/svg">
<g clip-path="url(#clip0_45_373)">
<path d="M12.8152 5.95538C12.5444 5.71906 12.2737 5.71906 11.9578 6.00263C10.4689 6.56983 7.67133 8.55506 6.9945 8.4133C8.12256 6.80621 9.34081 5.24637 10.7396 3.82835C11.3261 2.97753 10.5591 2.78847 10.4689 2.31579C10.2884 1.70131 10.3786 1.03958 10.5591 0.472365C10.8298 -0.000308482 10.2884 -0.0948433 9.9725 0.0942261C6.31768 4.06468 3.20432 8.03517 0.31656 12.0529C-0.134653 12.6673 -0.04441 13.14 0.271439 13.5182L1.80556 15.5506C2.12141 16.1179 2.61775 16.2124 3.24944 15.787L8.07743 12.3838C6.13722 15.6924 4.28723 19.4266 2.88847 23.9642C2.25678 25.9022 4.0165 28.8328 6.40794 31.9051C6.67866 32.236 7.22009 31.9051 6.85912 31.2434C4.55796 26.753 6.45307 19.8047 13.8529 9.5477C14.2139 9.12231 14.3493 8.69687 14.0786 8.27149L12.8152 5.95538Z" fill="#1D1D1B"/>
<path d="M31.8561 11.8632L32.4878 9.31081C32.6232 8.93267 32.8939 8.74361 33.2549 8.69635H35.4207H36.0524L36.4133 7.51465H35.4658L32.4878 7.5619C31.8561 7.51465 31.3598 7.75102 31.0439 8.50729L29.4195 15.1247L28.7878 17.7244C28.6074 18.2916 28.7427 18.7643 29.4195 18.9534C29.4647 18.9534 29.5549 19.0006 29.6 19.0006H33.3902L33.706 17.819H30.8183C30.5927 17.6298 30.4122 17.6298 30.5025 17.0626L31.1793 14.2739C31.2695 13.943 31.45 13.7067 31.7658 13.7067H33.9768L34.2927 12.7141H32.0366C31.7658 12.525 31.7207 12.2414 31.8561 11.8632Z" fill="#1D1D1B"/>
<path d="M36.3229 17.063C37.8119 10.9655 36.9095 14.6051 38.2631 9.3111C38.3985 8.93297 38.6692 8.7439 39.0302 8.69665H41.0606H41.7826L42.0533 7.75132L42.1436 7.46769H42.0533H41.0606H38.218C37.5863 7.42044 37.0448 7.65676 36.7741 8.41302L35.4205 13.9433L34.5181 17.5829C34.3376 18.2447 34.4729 18.7173 35.3302 18.8592H35.3753H39.1204L39.4363 17.6775H36.5485C36.4131 17.6775 36.2326 17.6302 36.3229 17.063Z" fill="#1D1D1B"/>
<path d="M21.7943 13.4705L19.6284 11.4853C19.1772 10.9181 19.6284 8.79103 20.576 8.74377H22.9674H23.7796L24.0503 7.60938H22.9674H19.9894C18.726 7.8457 17.6882 10.5872 18.1846 11.9107L20.3955 13.9904C20.7113 14.3686 20.7565 14.6995 20.7565 15.0776L20.1248 17.3464C19.9894 17.9136 19.6284 17.9136 19.1772 17.9136H16.1992L15.9285 19.0008H20.3052C20.9821 18.9535 21.3882 18.5281 21.4784 17.8191L22.2004 14.9358C22.3808 14.2741 22.1552 13.8014 21.7943 13.4705Z" fill="#1D1D1B"/>
<path d="M29.1035 13.14L29.4194 11.7693L30.0962 8.88597C30.1864 8.1297 29.9608 7.70431 29.4194 7.60975C29.3291 7.5625 29.2388 7.5625 29.1486 7.5625H24.8621L23.0121 14.7944L21.9292 19.0012H23.0121H23.4182L26.0804 8.74415H27.8401C28.201 8.83871 28.4267 9.02778 28.4267 9.40591L27.7047 12.5255C27.6145 13.0455 27.2986 13.3764 26.7572 13.5654L25.4036 13.8491L25.1779 14.9362L28.1108 14.369C28.6071 14.2272 29.0132 13.8491 29.1035 13.14Z" fill="#1D1D1B"/>
<path d="M44.7158 7.5625H42.956L42.0536 11.013L41.061 14.8416L39.978 19.0012H41.061H41.7378L42.0536 17.725L44.7158 7.5625Z" fill="#1D1D1B"/>
<path d="M60.3278 7.5625H59.2447H58.6129L55.5898 19.0012H57.3498L59.2447 11.8166L60.3278 7.5625Z" fill="#1D1D1B"/>
<path d="M68.0432 14.2742C68.1335 13.9433 68.314 13.707 68.6299 13.707H70.8406L71.1565 12.7144H68.8555C68.5847 12.5253 68.5396 12.2417 68.675 11.8636L69.3519 9.3111C69.4873 8.93297 69.7576 8.7439 70.1186 8.69665H72.1042H72.9165L73.1417 7.94038L73.277 7.46769H73.1417H72.1494H69.3971C68.7653 7.42044 68.2237 7.65676 67.9529 8.41302L66.3283 15.0305L65.697 17.6302C65.5165 18.1974 65.6519 18.6701 66.3283 18.8592C66.3735 18.8592 66.4637 18.9064 66.5088 18.9064H70.2991L70.615 17.7247H67.6822C67.4565 17.5356 67.276 17.5356 67.3663 16.9684L68.0432 14.2742Z" fill="#1D1D1B"/>
<path d="M79.1437 7.5625H73.9545L73.0976 10.7767L72.1048 14.6053L70.9766 18.9539H72.1048H73.0976H76.256C77.0227 18.9067 77.474 18.4813 77.6545 17.6777L80.0012 8.55509C80.0914 7.98789 79.7755 7.60975 79.1437 7.5625ZM78.1058 9.64223L76.1658 16.7324C76.1207 17.2996 75.7596 17.6777 75.0376 17.725H73.1878C73.1427 17.725 73.0976 17.725 73.0525 17.6777C72.8719 17.5832 72.8719 17.3468 72.9622 17.1105L73.0525 16.7796L75.3535 8.60239H77.6094C78.196 8.64965 78.2863 9.02778 78.1058 9.64223Z" fill="#1D1D1B"/>
<path d="M60.6883 16.921L66.2381 9.50004L66.6442 8.93284C67.1406 8.17657 66.9601 7.60938 66.2381 7.60938C66.2381 7.60938 66.2381 7.60938 66.193 7.60938H61.1396L61.0945 8.64921H64.2078C64.614 8.64921 64.8396 8.83828 64.5689 9.21641L59.2442 16.5429L58.3422 17.7718C57.9812 18.339 58.1165 18.7645 58.7483 19.048H59.2442H64.253L64.5689 17.7718H60.7786C60.4176 17.6773 60.3724 17.2046 60.6883 16.921Z" fill="#1D1D1B"/>
<path d="M47.7838 7.60975L42.0534 18.8594L41.9631 19.0485H42.0534H43.3168L47.8289 10.0677L48.235 10.1149L48.4606 12.6201C48.6411 13.2346 48.235 13.1873 48.0996 13.1873H46.8363L46.6106 14.1326L48.0996 14.1799C48.3704 14.2272 48.5057 14.369 48.4606 14.6526L48.7313 18.9067H50.2654L49.6337 7.5625L47.7838 7.60975Z" fill="#1D1D1B"/>
<path d="M52.612 16.9214L55.0484 7.5625H53.2889L50.6718 17.6304C50.6266 18.1976 50.8522 18.8121 51.574 19.0012H55.0484L55.4094 17.7723L52.9279 17.725C52.612 17.6777 52.4766 17.3941 52.612 16.9214Z" fill="#1D1D1B"/>
</g>
<defs>
<clipPath id="clip0_45_373">
<rect width="80" height="32" fill="white"/>
</clipPath>
</defs>
</svg>
